<svg xmlns="http://www.w3.org/2000/svg" width="185" height="60" viewBox="0 0 184.6 59.5"><style>.a{fill:none;stroke-width:3;stroke:#000;}</style><path d="M170.4 7.9c-3.3 1.2-8.2 0.4-11.6 0.4 -6.6 0-13.1 0-19.7 0 -7.8 0-15.6 0-23.4 0 -12 0-24 0-36 0 -12.2 0-24.3 1.2-36.5 2.7 -7.6 1-16.3 1.1-23.6 3.5C3.2 20.1 1.8 39.4 15.5 48.7c9.3 6.3 20.2 6.3 31.6 6.3 13.7 0 27.4-0.4 41.1-0.4 17.3 0 35 0.5 52.3-0.4 8.8-0.4 20.6 0 28.7-3.5 8.2-3.5 10.6-13.2 9.4-21.2 -1-6.7-1.7-17.4-10.5-18.7" class="a"/><path d="M173.8 17.6c-2.5-2.6-4-5.6-7.1-7.7 -4.5-2.9-9.6-2.4-14.7-2.7 -15-1.1-30-0.9-45.2-0.9 -16.8 0-34.6-1.7-51.3 0.3C47.9 7.5 40.4 9 32.9 10.3c-5.1 0.9-10 1.3-14.4 4.4 -5.8 4.1-7.8 10.9-8.7 17.6 -0.8 6.3 2.4 11.8 7 15.7 5.8 5 15.6 6.2 23 6.6 14.7 0.8 29.2 1.7 44 1.7 14 0 28 0 42 0 10.4 0 20.2-1.6 30.4-2.4 6.2-0.5 15.8-1.9 19.9-6.6 4.4-4.9 4.8-10.4 5.1-16.7 0.6-13.5-11.3-24.2-24.7-23" class="a"/><path d="M158.8 8.3c-11.5 0.3-23.5-2.4-35-3.4 -10.2-0.9-20.8-0.3-31.2-0.3 -17 0-36.2-2.3-52.8 1.7 -8.8 2.1-18.4 6.2-26.1 10.7C7.4 20.8 1.4 27.3 5.2 35.3c3.2 6.9 13.9 11.2 20.3 13.7 11 4.3 24.2 3 36 3.6 5.5 0.3 11.2 1.4 16.7 2.2 9.9 1.4 19.3 2 29.3 2 9.4 0 18.8 0.4 28.1-1 5.9-0.9 11.8-2.3 17.8-2.7 6.4-0.4 13.9 0.3 19.4-3.6 4.5-3.1 6.4-10.1 7.2-15.1 1.3-7.8-2.4-12.9-7.2-18.8 -4.9-5.9-14-7-21.4-7.9" class="a"/><path d="M160.8 8.6c-8.1-0.5-16.1-3.3-24.3-3.9 -5.8-0.5-11.7-0.1-17.5-0.1 -12.4 0-24.9 0-37.3 0 -13.5 0-27 0-40.5 0 -6.7 0-11.6 0.7-17.5 4C10.4 16-0.1 35.4 12.4 48.3c5.1 5.3 14.2 5.3 21 5.9 15.7 1.6 31.7 1.5 47.4 0 12.7-1.3 25.8-0.9 38.7-0.9 13.7 0 27-1.3 40.6-1.3 5.7 0 11.6 1.2 15.3-3.7 2.9-3.7 5.1-8.9 5.4-13.6 0.5-7.1-5.3-14.5-10.7-18.7 -4.2-3.4-11.5-8.8-17-8.7" class="a"/></svg>