<svg xmlns="http://www.w3.org/2000/svg" width="536" height="67" viewBox="0 0 536 66.5"><style>.a{fill:none;stroke-width:3;stroke:#000;}</style><path d="M524.7 14.4c-9.4 4.8-35.4-1.9-46.9-3.7 -17.8-2.8-35.8-5.3-53.8-6.4 -23.1-1.4-46.9 0.1-70.1 0.1 -26.6 0-53.1 0-79.7 0 -67 0-134.1 1.3-200.8 7 -9.1 0.8-91 4.9-64.1 31.3C26.8 59.8 68.5 53.4 91.2 53.4c67.1 0 134.2 0 201.2 0 43.9 0 87.7 0 131.6 0 27.6 0 63.4 5.7 89.4-1.8 9.6-2.7 18.1-8.2 18.6-18.2 0.6-11-9.2-15.3-18.9-18" class="a"/><path d="M509 21.4c-71.4-15-140.1-16-213.8-16 -33 0-66 0-99 0 -30.2 0-62-2.7-91.8 1.2 -25 3.3-53.4 4.3-77.1 11.5C3.9 25.1 4.7 47.1 29.2 53.1c20.1 4.9 44.1 0.1 64.9 1.2 47.6 2.4 95.7 2.1 143.7 2.1 47.1 0 94.1 3 141.3 3 29.7 0 57.7-4.1 86.9-5 14.8-0.5 55 6.6 61.6-9 7-16.7-16.3-29.9-31.2-29" class="a"/><path d="M512.1 21.4c-9.1-1.7-21.8-6.8-32.3-8 -11.6-1.3-24.2 0-35.9 0 -26.9 0-53.8 0-80.7 0 -30.9 0-61.7 0-92.6 0 -58.7 0-117-3-176-3 -23.5 0-58.5-6.4-77.7 8.8C-2.5 34.5 19.3 49.5 37 53.1c20.7 4.2 45.3 1.2 66.7 1.2 34.8 0 69.6 0 104.4 0 43.8 0 88.9-2.5 132.5 0.9 18.7 1.5 37.2 5.9 56.3 6.1 17.1 0.2 34.2 0 51.3 0 23 0 49.7-0.2 70.2-8.8 25.5-10.8-3-27.7-17-32.4 -4.3-1.4-7.9-3.3-12.3-3.8" class="a"/><path d="M490.2 18.4c-65.9-15.4-140.6-9-209.6-9 -73.2 0-146.4 0-219.6 0 -17.4 0-50.5 1.4-52.6 23 -1.7 17.8 28.8 19.1 43.2 21 77.2 10.2 158.1 6.3 236.5 7 52.8 0.5 106.2 3 159.4 3 17.9 0 34.1-3 51.2-7.2 5.5-1.4 34.9-4.5 23-15.8" class="a"/></svg>