<svg xmlns="http://www.w3.org/2000/svg" width="263" height="63" viewBox="0 0 262.5 62.5"><style>.a{fill:none;stroke-width:3;stroke:#000;}</style><path d="M247.8 12.8c-9 0.7-25.3-3-37.2-3 -16 0-31.9-0.3-47.9-1C126 7.3 89.1 10.5 52.5 8.8 37 8.1-4.6 8.1 7.8 33.8c8.9 18.6 36.7 14.2 53.9 15.8 48.9 4.4 100 0.2 149.1 0.2 15.1 0 36.5 5.1 45.3-9.9 7.6-13.1-1-21.1-13.3-26.1" class="a"/><path d="M243.8 13.8c-2.3 3.4-37.2-4.4-43.9-5 -13.5-1.2-27.3 0.3-40.8-1 -33.7-3.3-68.3-2-102.3-2 -18.6 0-64.7-1.9-49.3 27.2C17.8 52.4 57.6 54.1 76.3 54.8c46.7 1.8 95.8 3.1 142.5 1 11.7-0.5 30.6-1.3 37.7-12.3 6.3-9.8-4.7-28.4-15.7-30.7" class="a"/><path d="M241.8 12.8c-9.1 1.2-21.3-3.1-31-4 -8.4-0.8-16.6-1-25-1 -16.9 0-33.8 0-50.8 0 -32.2 0-65.1-1.8-97.3 0C23.7 8.6-3.5 14 8 34.6 16.5 49.9 40.9 48.4 55.7 49.8c25 2.4 50.8 1.1 75.9 3.2 21.9 1.8 43.2 2.8 65.4 2.8 11.8 0 23.1-1.3 34.7-2 7.5-0.4 18.6 1.3 23.8-5 10.8-13.1-5.9-30.5-16.8-36" class="a"/><path d="M245.1 16.5c-3.4-3-12-4.1-16.7-5.1 -4.4-0.9-8.9-1.2-13.3-1.9 -8.2-1.3-16.6-2-25-2 -4.2 0-8.4 0-12.7 0 -8.6 0-17-2-25.6-2 -9.4 0-18.7-1-28.2-1 -10.4 0-20.9 0.4-31.3 0.3C72.9 4.8 52.3 3 33.1 6.5c-9.1 1.7-18.7 5.9-24.8 13.1C3.6 25.1 3.5 32.9 7.8 38.8c6.7 9.1 26.6 10.4 36.2 10.7 12.8 0.5 24.8 0.4 37.4 2.3 13.2 2 26.4 3.9 39.7 5.6 16.1 2 33.5 1 49.8 0.8 13-0.1 26.1-3.7 39-5.3 10.7-1.4 21.3-1.2 32.1-1.3 3.8 0 7.8-0.6 11.5-1.7 3.5-1 4.8-3.9 5.5-7.7 1.1-5.6 0.7-12-2.2-16.9 -4.1-6.8-13.2-13.4-21.4-13.8" class="a"/></svg>