<svg xmlns="http://www.w3.org/2000/svg" width="224" height="63" viewBox="0 0 224.1 63"><style>.a{fill:none;stroke-width:3;stroke:#000;}</style><path d="M220.2 23.1c-4.9-2.7-9.4-6.8-15.5-8.5 -5.8-1.7-12.5-2-18.6-2.5 -21.4-1.7-43.4-1-65-1 -30.5 0-63.5-3.3-93 3.1C18 16.4 7.7 20.6 8.2 32.6c0.4 8.9 6 16.8 14.6 19.6 11.9 4 26.8 1.9 39.4 1.9 20.5 0 41.7-1.5 62 0.5 24.9 2.5 51.9 1 76.1-1.5 8.7-0.9 14.1-3.5 18-11.5 2.5-5.1 4.6-18.3-3.1-21" class="a"/><path d="M215.2 21.1c-8.7-5.3-25.2-5.4-36-7 -14.9-2.1-29.9-4.1-44.9-5.5 -16.7-1.6-34.1-0.5-51-0.5 -13.8 0-30.7-2.2-44.1 1 -9.5 2.3-25.6 5-30.5 14.5 -3.3 6.3 2 16.4 6.5 21.6 7.5 8.8 18.2 9.8 29.4 10.4 15.7 0.8 31.4 1 47.2 1 28 0 56 0 84 0 14.1 0 40.3 1.6 42.4-17.5 0.7-6.3-1.5-16.3-7.5-19.5" class="a"/><path d="M210.7 19.6c-9.8-12.2-40.8-8.5-55-8.5 -27.8 0-55.8 1.2-83.5-0.4 -17.5-1-33.3-1.9-49.6 4C13.3 18.1 0.4 23.9 4.3 36.6c3.1 10 17.5 14.6 26.4 16.9 19.2 4.8 38.5 3.2 58.2 5 27.4 2.5 55.3 1.1 82.9 1.1 13.4 0 26.3 2.6 36.9-6.4 11-9.4 16.7-30-1-35.1" class="a"/><path d="M220.2 26.6c-20.6-15.6-48-17.7-72.6-20.6 -24.5-2.9-49.4-1.9-74.2-1.9 -16.6 0-31.3 0-46.8 6.1 -9.6 3.8-19.9 9.1-21.4 20.4 -1.7 12.1 9.3 17.1 19.5 19 19.5 3.6 40.6 6.4 60.5 7 24.7 0.7 49.5 1.5 74.2 1.5 12.5 0 26.2 1 38.3-1.9 6-1.4 13.8-1.9 17.9-6.7 3.4-4.1 4.5-11 3.2-16 -3.3-12.7-16.1-11.4-23.6-18.9" class="a"/></svg>