<svg xmlns="http://www.w3.org/2000/svg" width="278" height="70" viewBox="0 0 278 70"><style>.a{fill:none;stroke-width:3;stroke:#000;}</style><path d="M275.1 20.7c-3.5 1.2-7.2-3.4-10.9-4.5 -3.8-1.2-8.4-1.4-12.3-2.2 -8-1.7-15.9-3.2-24.1-4 -31.7-3-63.6-2.6-95.7-2.6 -22.8 0-46.6-1.5-69.1 0.7 -14.5 1.4-40-2.9-51.3 7.8 -6.4 6.1-8 23.9-1.7 30 10.5 10.3 30.1 9.6 43.7 10.2 20.5 0.9 40.5 4.7 61.3 4.7 23.3 0 46.6 0 69.9 0 13 0 26.2-0.2 38.6-2 10.7-1.5 24 0 34.1-3.9 12.7-4.9 25-26.1 10.7-35.5" class="a"/><path d="M267.6 19.4c-12.9-2.5-27.3-8.1-41.6-9.9 -14-1.7-27.9-2.1-42-2.1 -30.9 0-61.8-2-92.4-2 -18.2 0-98-10.6-83.9 26 9.9 25.8 43.5 25.6 67.1 26.7 16.2 0.7 31.6 3.9 47.7 4.7 22.6 1 45.3 1.3 68.1 1.3 14.1 0 31.4 2.5 45.1-0.6 5.3-1.2 10.5-4.1 15.3-6.2 4.4-1.9 11.3-3.5 15-6 7.5-5.2 5.1-20.7 0-27 -5.9-7.4-18.4-11.5-27.1-13.5" class="a"/><path d="M241.7 10.7c-12.2 3.4-30.9 0-43.8 0 -16.8 0-33.2-2-49.7-2 -30.5 0-61 0-91.5 0 -14.9 0-38.9-3.8-48.9 9.5 -7.8 10.3-0.9 22.7 9 29.4 12.4 8.3 27.1 8.5 41.6 8.5 20 0 40 0 60 0 18.3 0 36.1 2.7 54.5 2.7 19.6 0 39-0.7 58.7-0.7 11.8 0 28.7 1.3 37.3-8.1 7.1-7.7 7.2-28.8-5.3-31.2" class="a"/><path d="M266.9 20.1c-23.8-10.9-53-9.9-78.5-12 -24.4-2-48.9-2.7-73.4-2.7 -23.6 0-49.5-3-72.7 0.5C29.4 7.8 8.7 13.9 9.2 28.7c1.1 33.7 57 30.7 79.8 32.7 28.7 2.4 59 4.7 87.8 4.7 19.8 0 40.3 1 59.4-2.6 10.3-2 27.4-3.5 32.7-13.5 5-9.3 2.5-23.6-5.3-30.5" class="a"/></svg>