<svg xmlns="http://www.w3.org/2000/svg" width="183" height="63" viewBox="0 0 182.5 63"><style>.a{fill:none;stroke-width:3;stroke:#000;}</style><path d="M160.9 8.5c-8.6 2.8-20.9-0.8-30.1-1.7 -7-0.7-13.9-0.6-21-0.6 -10.3 0-20.4 1.5-30.6 2.5 -14 1.4-28.3-0.9-42.4 0.4 -7.3 0.7-17.5 0.6-23.7 4.8 -6.9 4.6-9.5 9.9-9.8 18C3.1 39.6 8.3 49.8 13.8 54.4c7.7 6.4 18.3 5.5 27.6 4.6 10.9-1 21.5-4.3 32.5-5.2 17.9-1.4 37-0.5 54.8 1.3 10.7 1.1 21.8 0.3 32.6 0.3 7.1 0 14.4 1 17.2-7.1 2.2-6.3 2.2-10.6 1.2-17.1 -0.8-5-2.9-10.1-6-13.9 -3.6-4.5-10.6-9-16.3-8.5" class="a"/><path d="M152.3 8.8C117.9 8.7 83.7 8.2 49.3 8.2c-7.1 0-14.3 0-21.4 0 -4.6 0-8.7-0.2-12.9 2.3 -5.5 3.2-8.4 9.3-9.6 15.5C4.1 33 3.7 38.6 7.3 45c1.8 3.2 4 7.3 6.8 9.4 3.1 2.4 6.2 1.9 9.9 1.9 6.4 0 12.2 0.8 18.6 1.4 6.9 0.6 14.1 0.2 21.1 0.2 15.8 0 31.6 0 47.4 0 10.8 0 21.7 0.3 32.5-0.3 7.9-0.4 15.6-3 23.3-4.7 8.6-1.8 10-4.4 11.5-13.2 0.8-4.5 1.4-7.3 0.1-11.7 -1.1-4-2.3-6.4-4.8-9.7 -3.3-4.4-5.5-7.3-10.7-8.6 -4.8-1.2-11-1.7-15.8-0.3" class="a"/><path d="M147.2 9.2c-4.6 1.5-9.9-0.1-14.6-0.4 -3.5-0.2-7 0-10.5 0 -4.5 0-9 0-13.5 0 -7.2 0-14.5 0.4-21.7-0.3 -15.4-1.6-31.3-0.3-46.8-0.3 -8.4 0-20.6-2.5-27.9 2.8 -4.9 3.5-6.9 11.9-8 17.9 -1.3 6.9-0.6 16.6 4.5 21.6 4.8 4.7 11.4 5.3 17.6 6.2 10.6 1.6 22.3 1.2 33 1.2 17.2 0 34.5-0.4 51.7 0 15.1 0.4 30.1 1 45-1.2 5.7-0.8 12.2-2.6 16.5-6.7 10.6-10.2 1.3-29.1-7.5-36.6 -2.7-2.3-5.1-2.4-8.3-3.2" class="a"/><path d="M152 8.2c-7.2-0.1-14.5-1.1-21.7-1.4 -7.6-0.3-15.2-1.2-22.8-1.5C92.3 4.6 76 3.5 60.8 5c-11.7 1.2-24.3 2.7-35.8 5.4 -6.9 1.6-15.4 2.8-19.8 9.4 -3.5 5.3-2.3 15 0.1 20.5 1.5 3.5 3.7 6.4 5.4 9.6 1.6 3.1 2.1 5.9 5.3 7.5 5.3 2.6 12.6 1.9 18.2 1.9 6.6 0 13.1 0 19.7 0 18.7 0 37.3 0.3 56 0.3 14.9 0 29.4 2 43.9-1 7.2-1.5 17.9-2.1 21.5-10.6 1.1-2.4 1-5.5 1.8-8.1 0.9-2.9 1.2-5 1.2-8.1 0-6.9-3.7-12.7-8.8-16.6 -10.6-8.1-21-8.7-34-8.6 -0.5 0-1 0-1.5 0" class="a"/></svg>