<svg xmlns="http://www.w3.org/2000/svg" width="298" height="59" viewBox="0 0 298.1 59"><style>.a{fill:none;stroke-width:3;stroke:#000;}</style><path d="M284.8 10c-12.4 4.4-32.6 0.7-46 0.7 -11.1 0-22.2 0-33.3 0 -24.5 0-49 0-73.5 0 -23.5 0-47.1 0-70.6 0 -14.1 0-31.6-3.2-43.9 4 -12.8 7.5-16.2 20.6-2.7 29.9 13.9 9.6 33.8 7.3 49.9 8.1 49.8 2.3 100.3 2 150.3 2 20.1 0 57.4 6.5 73.9-7.5 12.3-10.5 3.4-33-11.4-36.5" class="a"/><path d="M280.8 16c-6.9-0.4-13.7-3.7-20.7-4.7 -8.1-1.1-16.6-0.8-24.6-1.2 -10.2-0.5-20.5-0.1-30.7-0.1 -28.2 0-56.5-0.2-84.7-1.3 -21.3-0.9-42.7 1-64 0 -11.9-0.5-22.8-2.6-34.2 1.9C9.6 15.4-2 26.1 8 38.8c7.8 10 21.3 10.7 32.9 11.8 47.5 4.6 96.6 1.1 144.7 1.1 19.7 0 39.6 2.3 59.3 2.3 9.7 0 20.7 1.3 30-0.8 9.5-2.2 18-6.6 16.7-17.2 -0.9-7.2-7.4-21.4-15.3-23.3" class="a"/><path d="M276.8 12.7c-10.5-0.1-24.5-3.7-36.3-4.7 -14.4-1.1-29-0.7-43.5-0.7 -18.4 0-36.9-1.7-55.2-2.7C125.6 3.9 109.3 4 93 4c-12.6 0-105.2-1.1-82.7 32 7.3 10.7 20.5 13.7 32.3 15.3 25.5 3.6 51.5 2.7 77.4 2.7 48 0 96.6 1.9 144.5-0.1 13.7-0.6 27-3.4 27.6-19.2 0.4-11.3-9.9-17.8-19.3-21.3" class="a"/><path d="M285 22.2c-2.3 0.7-10.6-3.4-13.9-4.5 -5.5-1.8-11-3.3-16.6-4.9 -10.4-3-21.6-4-32.4-5.1C186.8 4 151.2 5.2 115.6 5.2c-20.6 0-44.4-2.9-64.6 1.5 -12.5 2.8-26.6 7.4-38.6 12 -9.7 3.8-11.6 14.7-5 23 7.5 9.4 22.3 8.1 33.1 9.9 18.7 3.1 38.2 4.6 57.2 4.6 31.4 0 62.9-1 94.4-1 26.8 0 56.9 3.5 82.9-2.5 8.5-2 14.1-4 15.5-13.5 1.5-10.3-5.3-18.5-14.5-22" class="a"/></svg>