<svg xmlns="http://www.w3.org/2000/svg" width="187" height="93" viewBox="0 0 186.9 93"><style>.a{fill:none;stroke-width:3;stroke:#373535;}</style><path d="M7.8 51.9c12.3-4.9 30.3-2.8 43.4-3.5 22.7-1.2 45.2-3.1 67.9-2.4 12.7 0.4 25.3-0.4 38.2-0.9" class="a"/><path d="M103.5 10.2c16.8 11.4 40 18.5 59 26.3 5.9 2.4 11.8 4.4 17.9 6 -20.4 8.6-41 16.1-62 23.2 -13.2 4.5-30 6.9-41.7 14.3" class="a"/><path d="M7.7 51.9c12.7 1 27.1-4.4 40-5 12.3-0.6 25-1.6 37.2-1 23.4 1.1 47.4 2 70.8 2" class="a"/><path d="M103.7 7.9c12.5 7.4 24.6 11.9 37.2 18.7 13.7 7.5 29 9.4 42.7 15.5 -6.4 6.3-20.2 6.8-28.9 9.8 -7.8 2.6-15.9 7.1-23.8 10 -18 6.8-37.9 10.9-56.2 18" class="a"/><path d="M10.3 51.3c10.6 0.4 21.6-4.4 32-5.3 9.4-0.8 18.9 0.6 28.2 0.7 25.7 0.3 53.4 3.5 79.1 1.3" class="a"/><path d="M102.3 5.9c16.6 5.5 34.2 12.2 49.9 19.9 7 3.5 13.5 7.6 20.6 10.9 3.2 1.5 10.4 3.1 11.4 6.4 -12.9 6.2-24.7 14.6-38.7 18.7 -8.4 2.4-17.1 4.6-25.6 7 -15.2 4.2-31.1 8.2-45.6 13.2" class="a"/><path d="M6.3 49.9c14.6 0.7 28.6-4.5 43.4-4 14.6 0.4 28.9 3 43.3 0.8 4-0.6 7.9-0.8 12-0.8 7.3 0 15.7-1.8 22.7-1.4 8.6 0.5 16.8 3.4 26 3.4" class="a"/><path d="M107 5.9c11.2 9.2 27.8 14.9 40.9 21.7 10.6 5.5 22.1 9.4 33 12.8 -7.5 4.4-15 9.7-23.2 13 -12.5 5-26.2 7.1-38.7 12 -15 5.9-29.1 18.1-44.6 20.5" class="a"/><path d="M5.7 47.3c13 3 32.7-0.1 46.2-1.3 11.8-1.1 23.4-3.5 35.3-2.5 15.4 1.3 31.1 3.1 46.6 3.7 6.2 0.3 12.7-1.2 18.6-0.5" class="a"/><path d="M103 5.9c27.7 7.2 55 22.8 79.1 35.9 -19.1 6.6-38.5 13.8-57.8 20.9 -10.5 3.9-21 8.3-31.2 13 -6.4 3-14.9 5.4-20.1 10.1" class="a"/><path d="M6.3 49.3c22.3 0.3 45-4.5 67.2-5.3 11.8-0.4 23.8 0 35.6 0 15 0 29.5 0.7 44.5 0.7" class="a"/><path d="M105.7 5.3c12.4 6.7 25.2 12.8 38 18 7 2.9 13.7 5.4 20.7 8.5 5.7 2.5 13.7 8.5 19.8 8.8 -37.8 16.9-79.6 27.2-115.8 47.3" class="a"/></svg>