<svg xmlns="http://www.w3.org/2000/svg" width="351" height="133" viewBox="0 0 350.5 133"><style>.a{fill:none;stroke-width:3;stroke:#373535;}</style><path d="M5.1 41.3c50.6 8.1 101.7 19.8 152.8 23.2 16.6 1.1 32.8 1.5 49.3 3.4 19.3 2.2 49.2 9.8 67.2 4.5" class="a"/><path d="M165 3.6c38.4 18.1 79.7 45.9 121.3 53.9 20.3 3.9 41 6.6 61.4 9.8 -8.2-1-14 1.6-22.5 4.3 -34.4 10.8-68.2 23.5-101.8 36.4 -24.2 9.3-51.5 12.3-75 21.7" class="a"/><path d="M4.2 40.3c7.7 5.5 19.9 5.3 29.1 6.9 15.7 2.7 31 4.6 47 4.7 24.1 0 47 2.9 70.4 6.9 39 6.6 79 15.2 118.4 15.6" class="a"/><path d="M166.7 3.8c5.7 0.3 12.4 5.7 18.1 7.5 2.6 0.9 4.9 1.9 7.4 2.9 6.4 2.5 11.3 5.6 16.9 9.4 12.6 8.5 25.9 12.3 40.3 16.7 8.1 2.5 15.7 6.5 23.7 9.5 11 4.1 22.4 6.7 33.7 9.7 11.8 3.1 24.3 8.1 36.4 8.9 -6.9 4.3-19.7 2.8-28 4.8 -7.5 1.8-14.2 4.7-21.2 7.6 -11.2 4.6-22.4 8.9-33.8 12.6 -13.6 4.5-28.4 5.5-41.5 11.9 -11.9 5.8-23.2 10.8-36.1 13.4 -6.5 1.3-12.9 3.5-19.3 5.6 -5.2 1.7-10 4.9-16.1 5.5" class="a"/><path d="M7.2 41.3c19.2 5.9 42 10.6 62.3 11.4 19.7 0.8 40.1-0.7 59.7 2.3 37.8 5.6 75.9 10.8 113.6 15.9 7.8 1.1 17 1.1 24.5 3.5" class="a"/><path d="M167.7 3.8c12.2 13.3 33.7 20 50.1 26.6 14.5 5.9 30.3 8.7 45.3 13 14.8 4.2 30.1 9.7 44.1 15.9 10 4.4 23.6 11.1 34.9 10.6 -5.2 5.4-24.2 5.4-32.3 7.4 -6.5 1.6-12.6 3.7-18.8 6.1 -14.2 5.4-29.6 9.8-44.3 13.9 -15.7 4.4-30.9 10.9-46.6 15.6 -15.9 4.8-31.8 10-47.5 14.4 -2.2 0.6-4 0.6-5.9 2" class="a"/><path d="M5.2 38.3c13.4 0.7 24.7 8 38.5 8 13.8 0 27.4-0.4 40.6 3.1 12.6 3.4 25 5.5 37.9 7.4 17.6 2.5 35.4 1.6 52.9 5.4 16.8 3.7 33.9 4.5 50.9 6.1 8.1 0.8 15.6 1.8 23.6 2.6 6.4 0.6 15.7 0.4 21.6 2.5" class="a"/><path d="M166.7 3.8c13.1 5.1 23.2 15.9 36.7 21 15.8 6 32.1 10.7 48 16 31.4 10.5 63.5 20.5 95.3 28.6 -3 2.3-9.7 1.9-13.5 2.2 -5.6 0.6-11.1 1.5-16.6 2.3 -8.8 1.2-17.5 3.1-25.9 5 -14.3 3.2-28.9 8.2-42.6 13.8 -17.4 7.1-35.8 11.3-53.3 18.2 -10.1 4-20.8 6.3-31 9.9 -5 1.7-12.2 3.8-16.1 7.6" class="a"/><path d="M3.6 41.7c8 2.4 18.3 1.6 26.7 3.2 7.5 1.4 15 3 22.7 4.2 28.5 4.3 56.9 5.8 85.4 8.8 25.7 2.7 51.4 7.1 77.2 10.3 17.6 2.2 36.5 6.3 54.1 5.5" class="a"/><path d="M165.6 3.7c28.5 9.9 53.4 25.9 82.2 35.2 31.5 10.2 63.9 17.4 95 28.6 -8.9 6.1-23 7.1-33.3 10.3 -7.4 2.3-14.9 5-22.3 7.4 -16.5 5.2-34.5 4.4-50.9 10 -17.6 6.1-35.7 11.6-53.3 18 -8.7 3.1-17.4 6.4-26 9.8 -4.3 1.7-12.2 4-14.6 6" class="a"/><path d="M5.6 39c4.4 4.7 23.3 3.9 30.3 4.9 11 1.4 21.9 3 32.9 4.5 11.9 1.6 23.9 3 35.6 4.7 19 2.8 38.4 4.1 57.2 7.3 21 3.5 42.1 7 63.2 9.9 14.6 2 29.6 1.8 44.1 4.1 1 0.2 1.7 0.5 2.7 0.7" class="a"/><path d="M168.2 5c5.7 6.9 19.7 9.2 27.9 12.8 4.7 2.1 9.2 5.3 14.3 7.2 13.1 5 27.1 7.5 40.4 12 20.4 6.8 42.1 11.2 61.9 20 5.7 2.6 11 5.5 16.9 7.3 3.6 1.1 8.8 1.9 11.9 3.9 -13.3 3.9-24.4 10.2-38.4 13 -16.6 3.3-33.3 5.1-49.7 10.7 -19.1 6.4-37.9 12.9-57.3 18.3 -15.4 4.3-34.9 7.3-47.8 16.8" class="a"/></svg>