<svg xmlns="http://www.w3.org/2000/svg" width="251" height="95" viewBox="0 0 251 94.5"><style>.a{fill:none;stroke-width:3;stroke:#373535;}</style><path d="M3.7 38.5c42.2-4.8 85.7-4.6 128.2-8.1 24.6-2 49.2-4 73.8-6" class="a"/><path d="M122.7 5.2c17.5 7.5 43.2 5.8 62 8.9 18.1 2.9 37.1 5.2 54.9 7.5 -37.7 28.9-90.1 39.4-130.4 65" class="a"/><path d="M2.1 37.8c6.6 3.3 20.9 0.7 29.1 0.7 8.4 0 16.7 0 25-0.7 17.2-1.5 33.7-4.6 51.1-4.6 19.2 0 37.5-0.7 56.1-2.5 13.9-1.4 28.4-4.6 41.8-5.5 -0.6 0-1.2 0-1.8 0" class="a"/><path d="M123.4 4.5c12 4.4 28.3 4 41.2 5.3 8.4 0.9 16.4 3.7 24.7 5.3 15.7 3.1 34.5 6.6 50.5 5.4 -23.4 9.4-42.3 25-65.2 35.4 -24.1 10.9-49.4 19.3-71.2 33.9" class="a"/><path d="M2.8 37.8c37 0 74.5 1.5 111.1-2.7 18.5-2.1 36.6-5.7 55.1-7.3 9.7-0.8 23.4-0.6 32.5-4" class="a"/><path d="M122.8 5.2c21 0.1 41.4 4.5 62 8 11 1.9 22.5 4.1 34 5.3 7.6 0.8 15.4 0.7 22.7 2.8 -13.7 7.6-29.7 12.4-43.8 19.7 -10 5.2-20.8 9.4-31.2 14.2 -12.4 5.7-24.2 12.8-35.4 20.4 -7.5 5.1-16.4 11.5-24.9 14.2" class="a"/><path d="M2.8 36.5c9.3 2.6 21.4 0.9 31.1 0 10.5-1 21-0.3 31.6-0.7 17-0.6 32.8-4 50.1-4 16.7 0 32.1-1.1 48.4-3.4 7.7-1.1 15.8-0.7 23.5-1.9 4.6-0.7 10.4-2.7 14-2.7" class="a"/><path d="M122.8 5.2c11.9 4.6 28.4 5.4 41.2 6.7 8.4 0.8 17.1 2.1 25.5 3.2 16.7 2.1 34.5 5.6 51.1 6.2 -12.7 7.4-23.5 16.1-37.9 19.9 -12.5 3.3-25.5 6.6-37.1 12 -13 6-25.9 13.7-37.4 21.9 -7.8 5.5-16.9 8.9-24 14.8" class="a"/><path d="M3.4 36.5c11.5 4.1 28.5 0 40.7-0.7 7.5-0.4 15.2-1.2 22.6-2 17.6-2 35.3-5.3 52.9-6 27.3-1.1 58.6 4.7 85.1-2 -1.1 0-2.2 0-3.3 0" class="a"/><path d="M125.4 3.8c3.9 1.7 12.3 1 17.3 1.2 9.3 0.4 18.9 0.3 28.1 1.5 10.4 1.3 21.8 0.2 31.9 2.6 14.6 3.5 29.6 5.9 44 9.5 -3.7 5.7-19.3 9.5-26.4 11.9 -5.4 1.8-10.9 3.4-16.3 5.3 -13.9 4.9-28.1 8.9-40.8 16.7 -21.7 13.2-38.3 29.7-61.8 37.3" class="a"/><path d="M4.8 35.8c20.6 0 40.5 0.2 60.7-3.2 12.8-2.1 24.8-2.8 37.9-2.8 22.9 0 45.4-2.4 68.1-2.7 10.4-0.1 23.1 2 32.6-1.3" class="a"/><path d="M125.4 5.2c6.1 3.2 16.9 2.9 23.9 4.1 4.3 0.7 9 1.6 13.5 2 8.2 0.6 16.3 1.1 24.5 1.3 18.2 0.6 38 4.3 55.2 8.7 -13.7 7.5-26.6 16.2-41.8 20.5 -12.8 3.7-24 7.5-36 13.3 -11.4 5.6-22.8 10.6-33.4 17.5 -8 5.2-16.3 11.8-25.3 15.3" class="a"/></svg>