<svg xmlns="http://www.w3.org/2000/svg" width="223" height="111" viewBox="0 0 223 110.5"><style>.a{fill:none;stroke-width:3;stroke:#373535;}</style><path d="M7.1 58.6c38.9 2 77.5 5 116.5 4 23.3-0.6 46.5-2.6 69.8-0.3" class="a"/><path d="M157.4 7.5c18.4 19.9 42.7 37.2 59.3 57.4 -6.3 0.9-12.1 5.1-17.5 8.3 -9.2 5.6-19.5 8.9-28.8 14.2 -6.6 3.8-13.8 9.6-19.2 15.3" class="a"/><path d="M5.9 58.1c32 0 62.9-0.2 94 4.1 17.8 2.4 36 3.8 54.2 3 12.9-0.6 24.8-3.9 37.8-4" class="a"/><path d="M157.9 6.1c5.7 13.6 17 19.8 26.8 30.2 9.1 9.6 18.8 18.5 29.1 27 -15.3 17.8-44.1 25.5-61.9 40.8" class="a"/><path d="M3.9 58.1c38.9 0 77.9 0 116.8 0 13.7 0 27.6-0.7 41.2 0 10.2 0.5 20 3.7 30 4" class="a"/><path d="M157.9 4.1c18.7 21 40.2 40.8 60.1 60 -9.5 9.1-25.6 14.2-36.9 21.2 -9.8 6.1-20.7 14-29.2 21.8" class="a"/><path d="M4.9 59.1c10.9 4.4 29.4 1 41.4 1 9.5 0 19 0 28.6 0 13.1 0 26.1-0.1 39 1 15.9 1.4 31.6 3 48.1 3 9.4 0 24.5-4 32 1" class="a"/><path d="M156.9 4.1c11.5 3.5 22.4 24.7 31 33.2 10.5 10.4 21.7 18.1 29.9 30.5 -18.8 10.2-53 21.7-65.9 39.3" class="a"/><path d="M3.9 58.1c59.6 0 124.2-5.6 182 5" class="a"/><path d="M159.9 3.1c8.1 4.3 15 14.9 22.2 21.2 5.7 5 9.8 8.7 14 14.5 6.9 9.6 18.5 18.2 23.9 27.2 -10 9.9-26.6 16.2-39.4 23 -9.6 5.1-18.2 11.8-27.8 16" class="a"/><path d="M6.9 57.1c37.5 0 76.6-2.9 114-0.1 10.8 0.8 21.7 3.6 32.7 4.1 9.1 0.4 19.7-1.8 28.4 1.2 0.9-0.4 1.2-1.1 0.9-2.2" class="a"/><path d="M160.9 6.1c8.4 13.6 27.1 20.9 37 33.5 7 8.9 9.8 15.2 19.7 22.3 -11.4 4.9-23.6 13.3-33.6 20.4 -10.4 7.3-16.8 19.9-28 24.8" class="a"/></svg>