<svg xmlns="http://www.w3.org/2000/svg" width="129" height="55" viewBox="0 0 129.2 54.9"><style>.a{fill:none;stroke-width:4;stroke:#373535;}</style><path d="M109.1 3.2c-6.3 1.8-15 0.3-21.7 0.3 -5.5 0-11.1 0-16.6 0 -10.6 0-21.9-1.1-32.3 0.8 -3 0.5-5.8 1.9-8.7 2.8 -2.9 0.9-5.8 1.4-8.6 2.4 -6.6 2.5-11.8 6-16.1 11.7C-2.6 31.7 6.4 45.2 17.3 48.3c8.7 2.5 19.6 0.7 28.6 0.7 9.6 0 19.2 0 28.7 0 9.8 0 19.6 0 29.3 0 7.4 0 13-0.3 17.5-6.7 4.1-5.7 5.8-13.6 3.9-20.5 -2.1-7.6-6.8-11.6-13.5-14.8 -2-0.9-4-2.2-6.1-2.5 -2.1-0.3-4.5 0.7-6.4-0.6" class="a"/><path d="M104.4 4.4c-9.3 0.3-18.9-1-28.2-0.2 -7.8 0.6-15.5 0.9-23.4 0.9 -9.2 0.1-19.2 2.5-27.6 6.1 -6.3 2.7-13.8 5.5-17.2 11.7 -2.9 5.3-1.8 9.6-1.6 15.3 0.3 7.1 5 9.3 11.6 9.3 3.4 0 6.9-0.3 10.1 0.8 3 1 5.8 2 9.1 2.3 11.2 1 22.4-3.3 33.6-3.5 6.6-0.1 12.8-0.3 19.3 0.3 8.6 0.8 18.5 1.6 27-1.4 7.1-2.5 9.8-6.9 10.1-14 0.3-7 0.6-16.7-5.1-21.7 -2.6-2.3-6.3-3.9-9.6-5.2 -5-2-11.7-0.9-17-0.9" class="a"/><path d="M109.7 4.4c-4 1.5-10.7 0.2-15.1 0.2 -3.6 0-7.1-0.2-10.7-0.2 -6.7 0-13.3-0.2-20-0.2 -7.6 0-15.5-0.7-22.9 1C35.5 6.4 29.4 7.9 24 9.9c-4.6 1.8-9.7 4.8-13.5 8 -3.4 2.9-7.9 7.9-7.7 12.5 0.2 4.8 2.2 8.5 5.1 12.2 1.6 2 2.5 4.1 5.1 5.1 2.6 1 6.1 1.2 8.9 1.4 17.2 1.5 35.2 0.2 52.7 0.2 8 0 16 0 24 0 5.9 0 11.2 0.5 16.5-1.9 4.6-2 6.8-3.7 8.9-8.2 1.9-4.2 2.7-7.4 2.7-12.1 0-5.8-0.9-10.8-4.8-15.4 -2.2-2.6-4.9-3.4-7.8-4.9 -2.3-1.2-4.1-2.6-6.8-2.5" class="a"/><path d="M100.2 3.9c-4.2 2-11.9 0.5-16.3 0.5 -14.1 0-28.5-0.9-42.5 0.1C34.6 5 24.8 4.8 18.7 8.1 12.2 11.7 7.2 18.3 4.5 25.2 1.4 33 2 41.2 9.1 46.1c3.7 2.5 8.5 3 12.8 3.4 7.9 0.8 16.1 0.3 24 0.3 15.6 0 31.2 0.9 46.9 0.9 8.6 0 18.6 1.6 25.1-5 5.3-5.5 6.1-12.8 6.7-20.1 0.7-7.9-5.4-16.4-12.5-19.7 -4.7-2.1-8.5-2.7-13.6-2.7" class="a"/><path d="M89.5 4.2c-12.7 0-25.4-0.5-38.1-0.5 -4.6 0-9.5-0.4-14 0.2 -7.5 1.1-15.8 3.9-22.2 8 -3.5 2.3-4.6 5.4-6.5 9.1 -1.5 2.9-3.2 5-3.7 8.3 -0.8 5.1-0.5 11.4 3.4 15.2 5.2 5.1 13.5 7.9 20.7 7.9 9.9 0 19.7 0.5 29.5 0.5 12.9 0 25.8 0 38.7 0 8.4 0 15.1-1.1 21.8-6.3 11-8.5 6.6-26.6-0.7-36.4 -4.9-6.5-15-7.7-22.5-8 -6.5-0.3-12.3 0.6-18.4 1.8" class="a"/></svg>