<svg xmlns="http://www.w3.org/2000/svg" width="227" height="59" viewBox="0 0 227.4 59.3"><style>.a{fill:none;stroke-width:3;stroke:#000;}</style><path d="M202.6 7c-7.3 3-22.3 0.7-30.8 0.7 -7.9 0-15.8 0-23.7 0 -19 0-38 0-57 0 -16.1 0-32.8-1-48.4 1.3 -10 1.5-24.8 4.4-32.3 11.2 -9 8.2-2.3 21.4 6.8 27.7 13.2 9.2 34 5.1 49.5 5.1 35.9 0 71.8 0 107.7 0 16.1 0 38 1.7 47-14.7 8.3-15.2-4.6-30.2-20.8-30" class="a"/><path d="M201.3 7.7c-37.1 0-74.2 0-111.2 0 -24.1 0-57.9-4.9-78.1 10.5 -10.2 7.8-7.4 19.8 1.2 27.5 9.6 8.6 24.3 4.3 36.2 5.9 37.1 5.1 77.3 5.7 115.4 4 10.4-0.5 21.1-0.5 31.2-2 6.3-0.9 19.4-3.9 23.5-8.6 13.4-15.6-6-38.6-24.2-36" class="a"/><path d="M196.6 9c-34 0-68.1 0-102.1 0 -21.3 0-50.1-4.9-70.4 3.7C13 17.4-0.2 31.3 9.8 43.7c7.6 9.5 30.1 10.4 41.1 11.3 28.4 2.4 57.7 0.7 86.3 0.7 19.8 0 40.7 1.6 60.2-1.3 11.2-1.6 28.4-11.4 27.3-24.7 -0.7-9.1-16.5-17.1-24.7-20 -4.6-1.6-8.4-3-13.3-1.3" class="a"/><path d="M214.6 13.7c-1.6-6.1-33.2-7.6-42-8 -10.9-0.6-21.9 0-32.8 0 -21.1 0-42.1 0-63.2 0 -17.2 0-35.7-2-51.4 5C15.2 15.1-2 24.8 3.9 37.7c5.3 11.6 21.9 15.4 33.4 16 18.5 0.9 37.3 0.7 56 0.7 25.8 0 51.6 0 77.3 0 13.2 0 30.4 3.1 42.2-3.5 9.3-5.1 15.7-18.8 9.8-28.4 -5.1-8.4-20.6-15-30-14.8" class="a"/><path d="M215.9 13.7c-7.6 0.9-14.8-3.7-22-5.2 -6.3-1.3-12.9-1.5-19.4-1.4 -16.8 0-33.8 0.2-50.6-0.7C94.6 5 60-1.1 31.3 7.2 20.5 10.3-2.8 22.3 4.1 37c6.9 14.9 36 12 48.7 12 38.9 0 75.8 5.3 114.7 5.3 15 0 32.8 2.8 45.8-5.3 9.2-5.7 14.5-19.9 6.7-28.5 -3.4-3.8-8.8-5.7-12-8.8" class="a"/></svg>