<svg xmlns="http://www.w3.org/2000/svg" width="40" height="30" viewBox="0 0 39.8 29.8">
    <style>.a{fill:none;stroke-width:3;stroke:#000;}</style>
        <path 
            d="M3.4 13.9c6.4 0 15.9 0 22.3 0" class="a"/>
        <path 
            d="M20.4 3.3c1.6 1.3 4.4 3.9 5.7 5.4 1.2 1.3 1.9 2.7 2.9 4 0.6 0.8 1.5 1.3 2 2.2 -3.2 2.1-6.2 4.5-9.2 6.8 -1.4 1.1-2.4 3-4 3.8" class="a"/>
        <path 
            d="M35.6 2.3c0.4 2.2 0 4.9 0 7.1 0 2 0.4 3.5 0.6 5.4 0.2 1.7 0 3.6 0 5.4 0 2.5 0 5.1 0 7.6" class="a"/>
</svg>