<svg xmlns="http://www.w3.org/2000/svg" width="581" height="376" viewBox="0 0 580.6 376"><style>.a{fill:none;stroke-width:4;stroke:#000;}</style><path d="M4.9 25.4c24.6 6.8 53.7 3.1 79.4 3.1 28.9 0 57.8 0 86.8 0 66.4 0 132.9 1 199.2 1 70.5 0 140.5 3.1 210.4 3.1" class="a"/><path d="M0.6 72.4c14.7 4.8 37.4 1 52.9 1 12.4 0 24.8 0 37.3 0 29.9 0 59.8 0 89.7 0 87.9 0 176.2 0.5 263.4-3.1 42.4-1.8 84.9 1.1 127.2 1.1" class="a"/><path d="M7 117.4c103.1 0 207.1 3.1 310.1-1.2 34.3-1.5 69.1-0.8 103.7-0.8 21 0 41.8 3.2 62.5 4.1 24.6 1.1 46.8 0.4 70.8-1.1 3.9-0.2 7.9 0.1 11.8 0" class="a"/><path d="M7 159.3c22.7 10.8 58.7 4.1 83.9 4.1 14 0 27.9 0 41.9 0 44.8 0 89.7 0 134.5 0 90.1 0 183.1 6.3 272.1-4.1" class="a"/><path d="M3.8 200.2c141 0 282.5-4.5 423.5 2 26.1 1.2 52 2.1 78.3 2.1 12.6 0 33.8 3.5 44.4-2" class="a"/><path d="M5.4 244.3c145.9 0 291.8-1 437.9-1 34.3 0 68.6 0 103 0" class="a"/><path d="M12.3 287.8c149.7 0 299 4.1 448.7 4.1 26.1 0 52.1 1 78.4 1" class="a"/><path d="M8 332c119.6 0 238.1 2 357.4 2 58.8 0 120.2 5.6 178.2 0" class="a"/><path d="M50.7 0.9c5.5 14.9 2.1 37.9 2 54.2 0 22.9 1 46.2 1 69.5 0 47.7 1.1 95.1 3.1 142.4 1.5 36.2 0 72.8 0 109" class="a"/></svg>