<svg xmlns="http://www.w3.org/2000/svg" width="54" height="46" viewBox="0 0 54.3 45.8"><style>.a{fill:none;stroke-width:3;stroke:#373535;}</style><path d="M38.2 4.8c-3.2 1.3-7.6-0.3-11 0.6 -2.1 0.5-4.4 1.8-6.3 2.7 -3.3 1.4-6.3 2.9-9 5.4 -5.1 4.8-9.2 14.1-6.6 21.4 2.1 6 12.9 7.2 17.9 7.6 10.1 0.9 19.9-0.6 23.8-11.6 1.7-4.8 3-13.3 0.5-18 -2.2-4.1-6.9-4-9.6-7" class="a"/><path d="M38.9 5.1c-0.9 0.9-5.4 0.1-7.4 0.3 -2.1 0.2-4.2 0.8-6.3 1.3 -4 1-8.2 2.5-12 4.3 -7.3 3.4-10 9-9.7 17.1 0.3 8 4.9 11.6 12.4 13 6.3 1.1 15.6 1.6 21.9 0.3 7.8-1.6 12-13 11.3-20.3C48.4 11.9 42.1 6 32.9 6.1" class="a"/><path d="M36.2 4.8c-1.2 0.9-6 0.1-8.3 0.4 -2.2 0.3-4.6 1.2-6.7 1.9 -3.3 1.2-6.1 3-9 5.1 -6 4.3-9.5 12-7.6 19.6 2.1 8.3 8.3 9.9 16.2 9.7 6.7-0.2 16.5 0.4 22.3-2.9 6-3.4 5.7-13.3 6.1-19.4 0.4-8.1-5.2-12.8-13-14.3C22.8 2 5.4 6.8 3.3 21.5c-0.1 0.4 0 0.8-0.1 1.3" class="a"/><path d="M43.2 7.4c-10.6 0-23.4-2.5-32 4.7 -5.1 4.3-6.7 13.8-4.8 19.9 3.9 12.4 25.5 12.9 35 7.6 13.3-7.3 11.6-27.1-1.6-32.9" class="a"/></svg>