<svg xmlns="http://www.w3.org/2000/svg" width="45" height="43" viewBox="0 0 45.3 43.3"><style>.a{fill:none;stroke-width:3;stroke:#373535;}</style><path d="M27.4 4.6c-3.1 1.5-7 1.8-10.3 3.2 -3.3 1.5-5.7 3.1-7.7 6.1C5 20.5 3.1 28.5 9.4 34.8c9.2 9.3 25.6 5.5 30.5-5.9 2.1-4.9 3.2-11.2-0.1-16.1 -2.2-3.2-10.5-8.8-14.4-8.3 0.1-0.5 0.3-0.1 0.6-0.3" class="a"/><path d="M26.7 4.6C21.6 7.6 12.6 6 8.3 11.5c-2.7 3.4-4 13-2.9 17.1 2.9 11.7 18.5 13.3 27.6 8.2 6.4-3.5 9.4-10.3 8.2-17.7 -1.4-8.2-6.5-13.7-15.1-14.6" class="a"/><path d="M26 4.3c-4.1 1.7-8.2 1-12.3 3.8 -2.7 1.8-4.2 3.6-5.4 6.6 -1.9 4.7-3.1 12.4-0.9 17.3 2.8 6.2 8.1 7 14.3 7.3 7.1 0.4 10.3-0.5 14.9-6.1C46.6 21.1 40 7.2 25 4.9" class="a"/><path d="M27.4 3.9C13.9 4-2.8 15.7 5.5 30.6c3.8 6.9 8.2 8.7 16.3 8.3 6.8-0.3 13.4 0.1 16.3-7.3 2.4-6.1 5.7-12 1.4-18.6 -4.3-6.5-10.6-9.7-18.4-9.4" class="a"/></svg>