<svg xmlns="http://www.w3.org/2000/svg" width="6.07vw" height="auto" viewBox="0 0 85 58"><style>.a{fill:none;stroke-width:3;stroke:#000;}</style><path d="M53.3 2.5c-0.9 0.8-3.4 1.5-4.8 2.4 -1.7 1.1-3.3 2.2-5.2 3.1 -3.8 1.8-7.5 3.5-11.3 5.3 -4 1.9-8.4 2.9-12.3 4.8 -3.9 1.9-7.7 4.1-11.5 6.1 -1.1 0.6-2.5 1-3.5 1.6 2.9 0.4 4.8 2.2 7 4.2 2.3 2.1 4.7 4.1 7 6.1 5.2 4.4 10.2 9.4 16 13 3.4 2.1 6.7 4.5 10 6.8" class="a"/><path d="M79.4 28.3c-5.4 1.6-14.1 0.3-20 0.3 -8.1 0-16.2 0-24.4 0 -2.5 0-5 0.7-7.4 0.3 -2.9-0.5-5.2 0.3-8.2 0.2" class="a"/></svg>