<svg xmlns="http://www.w3.org/2000/svg"  viewBox="0 0 292.7 334.5">
	<style>
		.a{fill:none;stroke-width:3;stroke:#000;}
	</style>
		<path 
			d="M6.5 21.8c12 6.8 26.2 3.1 38.7 3.1 14.1 0 28.2 0 42.3 0 32.4 0 64.8 1 97.2 1 34.4 0 68.6 3.1 102.7 3.1" class="a"/>
		<path 
			d="M4.4 63.5c7.2 4.8 18.3 1 25.8 1 6.1 0 12.1 0 18.2 0 14.6 0 29.2 0 43.8 0 42.9 0 86 0.5 128.6-3.1 20.7-1.8 41.4 1.1 62.1 1.1" class="a"/>
		<path 
			d="M7.5 95.4c50.3 0 101.1 3.1 151.3-1.2 16.8-1.5 33.7-0.8 50.6-0.8 10.2 0 20.4 3.2 30.5 4.1 12 1.1 22.9 0.4 34.5-1.1 1.9-0.2 3.9 0.1 5.8 0" class="a"/>
		<path 
			d="M7.5 159.3c11.1 10.8 28.6 4.1 41 4.1 6.8 0 13.6 0 20.4 0 21.9 0 43.8 0 65.6 0 44 0 89.4 6.3 132.8-4.1" class="a"/>
		<path 
			d="M6 200.2c68.8 0 137.9-4.5 206.7 2 12.7 1.2 25.4 2.1 38.2 2.1 6.1 0 16.5 3.5 21.7-2" class="a"/>
		<path 
			d="M6.8 230.3c71.2 0 142.4-1 213.7-1 16.8 0 33.5 0 50.2 0" class="a"/>
		<path 
			d="M10.1 265.3c73 0 145.9 4.1 219 4.1 12.8 0 25.5 1 38.3 1" class="a"/>
		<path 
			d="M8 300.6c58.4 0 116.2 2 174.4 2 28.7 0 58.6 5.6 87 0" class="a"/>
		<path 
			d="M41.4 0.9c5.5 13.2 2.1 33.6 2 48 0 20.3 1 41 1 61.6 0 42.3 1.1 84.3 3.1 126.3 1.5 32.1 0 64.6 0 96.7" class="a"/>
</svg>
 
