<svg 
    xmlns="http://www.w3.org/2000/svg" 
    width="45vw" 
    height="auto" 
    viewBox="0 0 996 595.5"
>
    <style>
    .a{
        fill:none;
        stroke-width:0.2vw;
        stroke:#373535;
    }</style>
        <path 
            d="M195 8.5c10.5 23.8 6.5 58.4 4.1 84.1 -2.7 29-1.1 59.7-1.1 89.2 0 61.2-4.5 121.1-1.5 182.3 0.9 19.1 3.7 37 2.7 56.3 -1.1 21.3 6 40.4 4.8 60.8 -2.1 36.3-1.5 69.9-1.5 106.7" 
            class="a"
        />
        <path 
            d="M9 156c15.5 6 41.3 1.5 58.5 1.5 17.6 0 35.2 0 52.8 0 34 0 67.5 3 102 3 80.1 0 161.2 4 241.2 0 73.2-3.7 146.8-2.1 220 1.5 75.9 3.8 149.3 3 225.4 3 27 0 54 0 81 0" 
            class="a"
        />
        <path 
            d="M7.5 279c50-5.6 102.8-1.5 153.4-1.5 47.1 0 93.5-3 140.6-3 84.4 0 167.7-3 252-3 139 0 278 0 416.9 0" 
            class="a"
        />
        <path 
            d="M15 387c120.9 0 240.3-7.5 360.3-7.5 110.6 0 220.5 7.5 331 7.5 54.9 0 108.5-3.8 162.8-6 34-1.4 84.8-12 117.7-1.5" 
            class="a"
        />
        <path 
            d="M10.5 495c11.2 4.5 28.3 1.1 40.5 1.5 15.2 0.5 29.8 3.7 45.1 3 18.8-0.9 37.4 0 56.6 0 38 0 76 0 114 0 76.5 0 153-1.5 229.8-1.5 85.3 0 171.5 3.5 256.8 0 38.4-1.6 77.9 0 116.7-1.5 27.1-1.1 59 2.7 85.5-3" 
            class="a"
        />
        <path 
            d="M16.5 43.5c142.9 0 285.6 1.1 428.8 1.5 90.4 0.2 182-1.5 273.2-1.5 86.7 0 174.7 5.8 261 3" 
            class="a"
/>
</svg>