<svg xmlns="http://www.w3.org/2000/svg" width="293" height="335" viewBox="0 0 292.7 334.5">
	<style>
		.a{fill:none;stroke-width:3;stroke:#000;}
	</style>
		<path 
			d="M6.5 21.8c12 6.8 26.2 3.1 38.7 3.1 14.1 0 28.2 0 42.3 0 32.4 0 64.8 1 97.2 1 34.4 0 68.6 3.1 102.7 3.1" class="a"/>
		<path 
			d="M4.4 63.5c7.2 4.8 18.3 1 25.8 1 6.1 0 12.1 0 18.2 0 14.6 0 29.2 0 43.8 0 42.9 0 86 0.5 128.6-3.1 20.7-1.8 41.4 1.1 62.1 1.1" class="a"/>
		<path 
			d="M7.5 95.4c50.3 0 101.1 3.1 151.3-1.2 16.8-1.5 33.7-0.8 50.6-0.8 10.2 0 20.4 3.2 30.5 4.1 12 1.1 22.9 0.4 34.5-1.1 1.9-0.2 3.9 0.1 5.8 0" class="a"/>
		<path 
			d="M7.5 159.3c11.1 10.8 28.6 4.1 41 4.1 6.8 0 13.6 0 20.4 0 21.9 0 43.8 0 65.6 0 44 0 89.4 6.3 132.8-4.1" class="a"/>
		<path 
			d="M6 200.2c68.8 0 137.9-4.5 206.7 2 12.7 1.2 25.4 2.1 38.2 2.1 6.1 0 16.5 3.5 21.7-2" class="a"/>
		<path 
			d="M6.8 230.3c71.2 0 142.4-1 213.7-1 16.8 0 33.5 0 50.2 0" class="a"/>
		<path 
			d="M10.1 265.3c73 0 145.9 4.1 219 4.1 12.8 0 25.5 1 38.3 1" class="a"/>
		<path 
			d="M8 300.6c58.4 0 116.2 2 174.4 2 28.7 0 58.6 5.6 87 0" class="a"/>
		<path 
			d="M41.4 0.9c5.5 13.2 2.1 33.6 2 48 0 20.3 1 41 1 61.6 0 42.3 1.1 84.3 3.1 126.3 1.5 32.1 0 64.6 0 96.7" class="a"/>
</svg>
 


<svg xmlns="http://www.w3.org/2000/svg" width="161" height="55" viewBox="0 0 161 54.9"><
	style>.a{fill:none;stroke-width:4;stroke:#373535;}</style>
	<path 
		d="M136.3 3.2c-7.9 1.8-18.8 0.3-27.2 0.3 -7 0-13.9 0-20.9 0 -13.3 0-27.5-1.1-40.5 0.8 -3.7 0.5-7.2 1.9-10.9 2.8 -3.6 0.9-7.3 1.4-10.8 2.4 -8.2 2.5-14.8 6-20.2 11.7C-3.9 31.7 7.4 45.2 21.2 48.3c10.9 2.5 24.6 0.7 35.9 0.7 12 0 24 0 36.1 0 12.3 0 24.5 0 36.8 0 9.3 0 16.3-0.3 22-6.7 5.1-5.7 7.3-13.6 4.9-20.5 -2.7-7.6-8.5-11.6-16.9-14.8 -2.4-0.9-5.1-2.2-7.7-2.5 -2.7-0.3-5.7 0.7-8-0.6" 
		class="a"
	/>
	<path 
		d="M130.4 4.4c-11.7 0.3-23.7-1-35.4-0.2 -9.8 0.6-19.5 0.9-29.3 0.9 -11.5 0.1-24.1 2.5-34.7 6.1 -7.9 2.7-17.3 5.5-21.6 11.7 -3.6 5.3-2.3 9.6-2 15.3 0.3 7.1 6.2 9.3 14.5 9.3 4.2 0 8.6-0.3 12.7 0.8 3.8 1 7.3 2 11.4 2.3 14.1 1 28.1-3.3 42.1-3.5 8.3-0.1 16.1-0.3 24.3 0.3 10.8 0.8 23.3 1.6 33.8-1.4 8.9-2.5 12.3-6.9 12.6-14 0.4-7 0.7-16.7-6.4-21.7 -3.3-2.3-7.9-3.9-12-5.2 -6.3-2-14.7-0.9-21.3-0.9" 
		class="a"
	/>
	<path 
		d="M137.1 4.4c-5.1 1.5-13.4 0.2-19 0.2 -4.5 0-8.9-0.2-13.5-0.2 -8.4 0-16.7-0.2-25.1-0.2 -9.5 0-19.4-0.7-28.7 1 -7 1.2-14.6 2.7-21.3 4.8 -5.8 1.8-12.2 4.8-17 8 -4.2 2.9-9.9 7.9-9.7 12.5 0.3 4.8 2.8 8.5 6.5 12.2 2 2 3.1 4.1 6.4 5.1 3.3 1 7.7 1.2 11.1 1.4 21.6 1.5 44.2 0.2 66.1 0.2 10 0 20 0 30.1 0 7.5 0 14 0.5 20.7-1.9 5.8-2 8.6-3.7 11.2-8.2 2.4-4.2 3.4-7.4 3.4-12.1 0-5.8-1.1-10.8-6-15.4 -2.8-2.6-6.1-3.4-9.8-4.9 -2.9-1.2-5.1-2.6-8.5-2.5" 
		class="a"
	/>
	<path 
		d="M125.1 3.9c-5.3 2-14.9 0.5-20.5 0.5 -17.7 0-35.8-0.9-53.4 0.1C42.8 5 30.6 4.8 22.9 8.1 14.7 11.7 8.5 18.3 5.1 25.2c-3.9 7.9-3.1 16.1 5.8 20.9 4.6 2.5 10.6 3 16 3.4 9.9 0.8 20.1 0.3 30.2 0.3 19.6 0 39.2 0.9 58.8 0.9 10.7 0 23.3 1.6 31.5-5 6.7-5.5 7.6-12.8 8.4-20.1 0.9-7.9-6.7-16.4-15.7-19.7 -5.9-2.1-10.7-2.7-17-2.7" 
		class="a"
	/>
	<path 
		d="M111.7 4.2c-16 0-31.9-0.5-47.8-0.5 -5.7 0-11.9-0.4-17.6 0.2 -9.4 1.1-19.8 3.9-27.8 8 -4.4 2.3-5.8 5.4-8.2 9.1 -1.9 2.9-4.1 5-4.7 8.3C4.6 34.4 5 40.7 9.8 44.5c6.5 5.1 16.9 7.9 25.9 7.9 12.4 0 24.7 0.5 37.1 0.5 16.2 0 32.4 0 48.5 0 10.5 0 18.9-1.1 27.3-6.3 13.8-8.5 8.3-26.6-0.9-36.4 -6.1-6.5-18.8-7.7-28.3-8 -8.1-0.3-15.4 0.6-23.1 1.8" 
		class="a"
	/>
</svg>